<svg id="Layer_1" dataName="Layer 1" xmlns="http://www.w3.org/2000/svg" xmlns:xlink="http://www.w3.org/1999/xlink" viewBox="0 0 171.54 43.67"><defs><style>.cls-1{fill:none;}.cls-2{clip-path:url(#clip-path);}.cls-3{fill:#ee7684;}.cls-4{fill:#fff;}</style><clipPath id="clip-path"><rect class="cls-1" x="1.56" y="1.67" width="59.87" height="40"/></clipPath></defs><path class="cls-1" d="M5.28,0h161c2.91,0,5.28,1.83,5.28,4.09V39.58c0,2.26-2.37,4.09-5.28,4.09H5.28C2.36,43.67,0,41.84,0,39.58V4.09C0,1.83,2.36,0,5.28,0Z"/><g class="cls-2"><path class="cls-3" d="M22.59,24.08a2.19,2.19,0,0,1-1.73-.83l-4.92-6.1a2.23,2.23,0,1,1,3.47-2.79l4.92,6.1a2.22,2.22,0,0,1-1.74,3.62Z"/><path class="cls-3" d="M28.25,23.44a2.2,2.2,0,0,1-.5-.06,2.22,2.22,0,0,1-1.67-2.67l2.31-10.07a2.23,2.23,0,0,1,4.34,1L30.42,21.71a2.23,2.23,0,0,1-2.17,1.73Z"/><path class="cls-3" d="M41.1,20.25a2.21,2.21,0,0,1-1.65-.74L32.64,12A2.23,2.23,0,1,1,36,9l6.81,7.54a2.22,2.22,0,0,1-1.65,3.72Z"/><path class="cls-3" d="M45.55,19.93a2.21,2.21,0,0,1-.9-.19,2.23,2.23,0,0,1-1.14-2.94c1.57-3.54,3.3-7.53,3.57-8.3a2.23,2.23,0,0,1,4.4.51c0,.58,0,.8-3.89,9.6a2.23,2.23,0,0,1-2,1.33Z"/><path class="cls-3" d="M56.29,18a2.22,2.22,0,0,1-1.63-.71l-6.29-6.74a2.23,2.23,0,0,1,3.26-3l6.29,6.74A2.23,2.23,0,0,1,56.29,18Z"/><path class="cls-3" d="M20.83,40a2.29,2.29,0,0,1-.94-.21,2.24,2.24,0,0,1-1.09-3l3-6.4a2.23,2.23,0,0,1,4.05,1.87l-3,6.4a2.23,2.23,0,0,1-2,1.29Z"/><path class="cls-4" d="M43.92,27a5.46,5.46,0,1,1,5.46-5.46A5.47,5.47,0,0,1,43.92,27Zm0-6.47a1,1,0,1,0,1,1A1,1,0,0,0,43.92,20.57Z"/><path class="cls-4" d="M7,27.32a5.46,5.46,0,1,1,5.46-5.46A5.47,5.47,0,0,1,7,27.32Zm0-6.47a1,1,0,1,0,1,1A1,1,0,0,0,7,20.85Z"/><path class="cls-4" d="M25.93,33.59A7.57,7.57,0,1,1,33.5,26,7.58,7.58,0,0,1,25.93,33.59Zm0-10.69A3.11,3.11,0,1,0,29,26,3.11,3.11,0,0,0,25.93,22.9Z"/><path class="cls-3" d="M19.13,9.79a3.68,3.68,0,1,1,3.68-3.68A3.68,3.68,0,0,1,19.13,9.79Z"/><path class="cls-3" d="M55.17,29.71A3.68,3.68,0,1,1,58.85,26,3.68,3.68,0,0,1,55.17,29.71Z"/><path class="cls-3" d="M13.87,34.25a3.68,3.68,0,1,1,3.68-3.68A3.68,3.68,0,0,1,13.87,34.25Z"/><path class="cls-3" d="M38,35.7A3.68,3.68,0,1,1,41.67,32,3.68,3.68,0,0,1,38,35.7Z"/><path class="cls-3" d="M9.63,14.16a3.68,3.68,0,1,1,3.68-3.68A3.68,3.68,0,0,1,9.63,14.16Z"/><path class="cls-4" d="M17.67,19.52a3.68,3.68,0,1,1,3.68-3.68A3.68,3.68,0,0,1,17.67,19.52Z"/><path class="cls-4" d="M20.84,41.67A3.68,3.68,0,1,1,24.52,38,3.68,3.68,0,0,1,20.84,41.67Z"/><path class="cls-4" d="M49.25,12.71A3.68,3.68,0,1,1,52.93,9,3.68,3.68,0,0,1,49.25,12.71Z"/><path class="cls-4" d="M57.75,20.9a3.68,3.68,0,1,1,3.68-3.68A3.68,3.68,0,0,1,57.75,20.9Z"/><path class="cls-4" d="M32.54,12.6A5.46,5.46,0,1,1,38,7.14a5.47,5.47,0,0,1-5.46,5.46Zm0-6.47a1,1,0,1,0,1,1A1,1,0,0,0,32.54,6.13Z"/></g><path class="cls-4" d="M77.46,11.33a2.46,2.46,0,0,0-.79-.65,2.2,2.2,0,0,0-1.1-.29,2,2,0,0,0-.95.22.8.8,0,0,0,0,1.44,9.67,9.67,0,0,0,1.4.41,7.14,7.14,0,0,1,1,.29,3,3,0,0,1,.9.49,2.17,2.17,0,0,1,.67.74A2.05,2.05,0,0,1,78.85,15a2.7,2.7,0,0,1-.31,1.35,2.48,2.48,0,0,1-.79.88,3.15,3.15,0,0,1-1.15.49,5.43,5.43,0,0,1-1.35.16,5.49,5.49,0,0,1-2-.36,4.23,4.23,0,0,1-1.58-1.06l1.42-1.33a2.76,2.76,0,0,0,.94.77,2.72,2.72,0,0,0,1.28.31,2.5,2.5,0,0,0,.47-.05,1.83,1.83,0,0,0,.45-.16,1,1,0,0,0,.34-.32.91.91,0,0,0,.13-.49.79.79,0,0,0-.5-.77A7.64,7.64,0,0,0,74.76,14a7.9,7.9,0,0,1-1-.27,3.52,3.52,0,0,1-.81-.45,2.31,2.31,0,0,1-.58-.7,2.27,2.27,0,0,1-.22-1,2.37,2.37,0,0,1,1.08-2.09,3.16,3.16,0,0,1,1.1-.5,4.84,4.84,0,0,1,1.26-.16,5.41,5.41,0,0,1,1.82.32,3.15,3.15,0,0,1,1.42,1l-1.4,1.24Zm2-2.3h2.39l2.41,6.28h0L86.41,9h2.25L84.57,19.52a7.23,7.23,0,0,1-.5,1,2.74,2.74,0,0,1-.65.77,2.45,2.45,0,0,1-.9.49A4,4,0,0,1,81.3,22a3.6,3.6,0,0,1-.56,0,2.83,2.83,0,0,1-.56-.09L80.36,20a1.6,1.6,0,0,0,.41.09,3,3,0,0,0,.4,0,1.64,1.64,0,0,0,.58-.09.88.88,0,0,0,.4-.25,1.86,1.86,0,0,0,.29-.41l.27-.59.43-1.1L79.43,9ZM90,9h2v1.39h0a2.7,2.7,0,0,1,1-1.13,2.83,2.83,0,0,1,1.69-.5,3.06,3.06,0,0,1,1.44.31,2.65,2.65,0,0,1,1,.77A3.14,3.14,0,0,1,97.73,11a4.69,4.69,0,0,1,.18,1.3v5.4H95.75V12.9a7.29,7.29,0,0,0,0-.79,2.14,2.14,0,0,0-.23-.74,1.58,1.58,0,0,0-.5-.56,1.43,1.43,0,0,0-.83-.22,1.72,1.72,0,0,0-.9.22,2,2,0,0,0-.63.52,2.32,2.32,0,0,0-.36.76,3.07,3.07,0,0,0-.13.85v4.75H90V9Zm15.84,7.54h-.05a2.48,2.48,0,0,1-1,.95,3.63,3.63,0,0,1-1.64.36,4.88,4.88,0,0,1-1.1-.14,3.27,3.27,0,0,1-1-.43,2.85,2.85,0,0,1-.79-.83,2.53,2.53,0,0,1-.31-1.28,2.18,2.18,0,0,1,.54-1.55,3.65,3.65,0,0,1,1.42-.88,7.88,7.88,0,0,1,1.91-.4c.71-.07,1.4-.11,2.07-.11V12a1.32,1.32,0,0,0-.59-1.19,2.42,2.42,0,0,0-1.39-.4,3.13,3.13,0,0,0-1.31.29,3.51,3.51,0,0,0-1,.7l-1.12-1.31a4.9,4.9,0,0,1,1.69-1,5.82,5.82,0,0,1,2-.34,4.83,4.83,0,0,1,1.89.32,3.16,3.16,0,0,1,1.19.85,2.82,2.82,0,0,1,.59,1.17,4.8,4.8,0,0,1,.18,1.3v5.26h-2v-1.1Zm0-2.84h-.49c-.35,0-.71,0-1.1,0a3.91,3.91,0,0,0-1.06.2,2.24,2.24,0,0,0-.81.43.92.92,0,0,0-.32.76,1,1,0,0,0,.13.52,1.22,1.22,0,0,0,.36.32,1.78,1.78,0,0,0,.49.18,2.47,2.47,0,0,0,.54,0,2.27,2.27,0,0,0,1.69-.59,2.26,2.26,0,0,0,.58-1.62v-.31ZM112.39,9v1.21h0a3.1,3.1,0,0,1,.41-.5,2.64,2.64,0,0,1,.65-.47,3.43,3.43,0,0,1,.85-.34,3.62,3.62,0,0,1,1.08-.14,3.94,3.94,0,0,1,1.69.36,4,4,0,0,1,1.33.95,4.35,4.35,0,0,1,.86,1.44,5.2,5.2,0,0,1,.31,1.78,5.12,5.12,0,0,1-.31,1.8,4.19,4.19,0,0,1-.85,1.46,4,4,0,0,1-1.33,1,4.13,4.13,0,0,1-1.76.36,3.81,3.81,0,0,1-1.69-.38,2.87,2.87,0,0,1-1.17-1h0V22h-2.16V9h2.08Zm5,4.28a3,3,0,0,0-.16-1,2.72,2.72,0,0,0-.45-.9,2.32,2.32,0,0,0-1.87-.88,2.16,2.16,0,0,0-1.06.25,2.69,2.69,0,0,0-1.31,1.55,3.27,3.27,0,0,0,0,2,3.19,3.19,0,0,0,.5.88,3,3,0,0,0,.81.65,2.29,2.29,0,0,0,1.06.23,2.26,2.26,0,0,0,1.1-.25,2.32,2.32,0,0,0,.77-.65,2.82,2.82,0,0,0,.45-.9A3.23,3.23,0,0,0,117.43,13.31Zm9-2a2.46,2.46,0,0,0-.79-.65,2.2,2.2,0,0,0-1.1-.29,2,2,0,0,0-1,.22.8.8,0,0,0,0,1.44,9.67,9.67,0,0,0,1.4.41,7.14,7.14,0,0,1,1,.29,3,3,0,0,1,.9.49,2.17,2.17,0,0,1,.67.74,2.05,2.05,0,0,1,.25,1.06,2.7,2.7,0,0,1-.31,1.35,2.48,2.48,0,0,1-.79.88,3.15,3.15,0,0,1-1.15.49,5.43,5.43,0,0,1-1.35.16,5.49,5.49,0,0,1-2-.36,4.23,4.23,0,0,1-1.58-1.06l1.42-1.33a2.76,2.76,0,0,0,.94.77,2.72,2.72,0,0,0,1.28.31,2.5,2.5,0,0,0,.47-.05,1.83,1.83,0,0,0,.45-.16,1,1,0,0,0,.34-.32.91.91,0,0,0,.13-.49.79.79,0,0,0-.5-.77,7.64,7.64,0,0,0-1.48-.47,7.9,7.9,0,0,1-1-.27,3.52,3.52,0,0,1-.81-.45,2.31,2.31,0,0,1-.58-.7,2.27,2.27,0,0,1-.22-1,2.37,2.37,0,0,1,1.08-2.09,3.16,3.16,0,0,1,1.1-.5,5.31,5.31,0,0,1,1.26-.16,5.41,5.41,0,0,1,1.82.32,3.15,3.15,0,0,1,1.42,1l-1.4,1.24Zm9.35,1.15a2.3,2.3,0,0,0-.13-.79,1.75,1.75,0,0,0-.36-.67,1.61,1.61,0,0,0-.65-.45,2.06,2.06,0,0,0-.9-.18,2.48,2.48,0,0,0-1.66.59,2.13,2.13,0,0,0-.74,1.49h4.44Zm2.16,1v.29a1.42,1.42,0,0,1,0,.29h-6.57a2.24,2.24,0,0,0,.23.86,2.53,2.53,0,0,0,.56.67,3,3,0,0,0,.77.43,2.47,2.47,0,0,0,.9.16,3,3,0,0,0,1.37-.29,2.62,2.62,0,0,0,.92-.83l1.44,1.15a4.34,4.34,0,0,1-3.71,1.73A5.24,5.24,0,0,1,132,17.6a4.81,4.81,0,0,1-1.48-.9,4.13,4.13,0,0,1-1-1.4,5,5,0,0,1-.34-1.91,4.9,4.9,0,0,1,.34-1.89,4.29,4.29,0,0,1,1-1.46A4.23,4.23,0,0,1,132,9.1a4.75,4.75,0,0,1,1.82-.34,4.3,4.3,0,0,1,1.66.31,3.44,3.44,0,0,1,1.33.88,3.82,3.82,0,0,1,.86,1.46,5.69,5.69,0,0,1,.32,2Zm6.83-2.12a2.46,2.46,0,0,0-.79-.65,2.2,2.2,0,0,0-1.1-.29,2,2,0,0,0-1,.22.8.8,0,0,0,0,1.44,9.67,9.67,0,0,0,1.4.41,7.14,7.14,0,0,1,1,.29,3,3,0,0,1,.9.49,2.17,2.17,0,0,1,.67.74,2.05,2.05,0,0,1,.25,1.06,2.7,2.7,0,0,1-.31,1.35,2.48,2.48,0,0,1-.79.88,3.15,3.15,0,0,1-1.15.49,5.43,5.43,0,0,1-1.35.16,5.49,5.49,0,0,1-2-.36A4.23,4.23,0,0,1,139,16.5l1.42-1.33a2.76,2.76,0,0,0,.94.77,2.72,2.72,0,0,0,1.28.31,2.5,2.5,0,0,0,.47-.05,1.83,1.83,0,0,0,.45-.16,1,1,0,0,0,.34-.32.91.91,0,0,0,.13-.49.79.79,0,0,0-.5-.77,7.64,7.64,0,0,0-1.48-.47,7.9,7.9,0,0,1-1-.27,3.52,3.52,0,0,1-.81-.45,2.31,2.31,0,0,1-.58-.7,2.27,2.27,0,0,1-.22-1,2.37,2.37,0,0,1,1.08-2.09,3.16,3.16,0,0,1,1.1-.5A5.31,5.31,0,0,1,143,8.79a5.41,5.41,0,0,1,1.82.32,3.15,3.15,0,0,1,1.42,1l-1.4,1.24ZM74.32,36.24v1.42H73.1V24.05h1.22v6.64h0a3.41,3.41,0,0,1,1.4-1.24A3.92,3.92,0,0,1,77.54,29a4.42,4.42,0,0,1,1.78.34,3.94,3.94,0,0,1,1.37.94,4.06,4.06,0,0,1,.88,1.4,4.58,4.58,0,0,1,.32,1.75,4.78,4.78,0,0,1-.32,1.75,4.09,4.09,0,0,1-2.25,2.34,4.42,4.42,0,0,1-1.78.34,4.14,4.14,0,0,1-1.78-.41,3.44,3.44,0,0,1-1.4-1.22h0Zm6.28-2.79a3.71,3.71,0,0,0-.22-1.31,2.91,2.91,0,0,0-.63-1.08,2.74,2.74,0,0,0-1-.74,3.25,3.25,0,0,0-1.35-.27,3.12,3.12,0,0,0-1.3.27,3,3,0,0,0-1,.72,3.15,3.15,0,0,0-.68,1.08,3.61,3.61,0,0,0-.23,1.33,4,4,0,0,0,.23,1.35,3.51,3.51,0,0,0,.68,1.06,3.09,3.09,0,0,0,2.33,1,3.42,3.42,0,0,0,1.35-.25,2.82,2.82,0,0,0,1-.72,3.07,3.07,0,0,0,.63-1.08A4.17,4.17,0,0,0,80.6,33.45Zm6.82,2.9h0l2.61-7.11H91.4l-4.19,10.6a4.38,4.38,0,0,1-1,1.55,2.2,2.2,0,0,1-1.67.59,5.78,5.78,0,0,1-1.1-.11l.13-1.12a2.73,2.73,0,0,0,.9.14,1.25,1.25,0,0,0,1-.4,3.22,3.22,0,0,0,.63-1.1l.68-1.76-3.6-8.41h1.37l2.86,7.11Zm17.32-.11a3.43,3.43,0,0,1-1.4,1.22,4,4,0,0,1-1.78.41,4.55,4.55,0,0,1-1.8-.34,4.24,4.24,0,0,1-1.37-.94,4.38,4.38,0,0,1-.88-1.4,5,5,0,0,1-.31-1.75,4.77,4.77,0,0,1,.31-1.75,4.44,4.44,0,0,1,.88-1.4,4.13,4.13,0,0,1,1.37-.94,4.55,4.55,0,0,1,1.8-.34,3.89,3.89,0,0,1,1.78.43,3.42,3.42,0,0,1,1.4,1.24h0V24H106V37.65h-1.22V36.23h0Zm-6.25-2.79a3.91,3.91,0,0,0,.22,1.33,3.37,3.37,0,0,0,.61,1.08,3.09,3.09,0,0,0,1,.72,3.42,3.42,0,0,0,1.35.25,3.09,3.09,0,0,0,2.33-1,3.14,3.14,0,0,0,.67-1.06,3.56,3.56,0,0,0,.25-1.35,3.42,3.42,0,0,0-.25-1.33A3.13,3.13,0,0,0,104,31a3,3,0,0,0-1-.72,3.12,3.12,0,0,0-1.3-.27,3.25,3.25,0,0,0-1.35.27,3,3,0,0,0-1,.74,3.16,3.16,0,0,0-.61,1.08A4,4,0,0,0,98.49,33.45Zm17.2-.65a3,3,0,0,0-.77-2,2.55,2.55,0,0,0-2-.79,2.78,2.78,0,0,0-1.13.23,2.84,2.84,0,0,0-.92.61,3.08,3.08,0,0,0-.63.88,2.62,2.62,0,0,0-.27,1Zm1.24.4v.27a1.67,1.67,0,0,1,0,.31h-7a3.37,3.37,0,0,0,.25,1.19,3,3,0,0,0,.65,1,3.5,3.5,0,0,0,1,.67,3.32,3.32,0,0,0,2.85-.2,3.27,3.27,0,0,0,1.06-1l.92.72A4.37,4.37,0,0,1,113,37.88a4.81,4.81,0,0,1-1.75-.32,4.24,4.24,0,0,1-1.37-.94,4.34,4.34,0,0,1-1.24-3.16A4.83,4.83,0,0,1,109,31.7a4.32,4.32,0,0,1,.9-1.4,4,4,0,0,1,1.35-.92A4.06,4.06,0,0,1,112.9,29a4.2,4.2,0,0,1,1.75.34,3.63,3.63,0,0,1,2,2.21,4.75,4.75,0,0,1,.27,1.62Zm3.89,4.46H119.6V24.05h1.22Zm8.59-5.44a2.13,2.13,0,0,0-.58-1.64,2.35,2.35,0,0,0-1.67-.54,3.6,3.6,0,0,0-1.4.27,3.39,3.39,0,0,0-1.1.72l-.68-.81a3.87,3.87,0,0,1,1.37-.86,5.2,5.2,0,0,1,1.94-.34,4.09,4.09,0,0,1,1.28.2,2.9,2.9,0,0,1,1,.56,2.59,2.59,0,0,1,.7.95,3.29,3.29,0,0,1,.25,1.35v3.69c0,.32,0,.66,0,1a7.77,7.77,0,0,0,.11.88h-1.1a6.05,6.05,0,0,1-.09-.67c0-.24,0-.47,0-.7h0a3.59,3.59,0,0,1-1.31,1.22,3.87,3.87,0,0,1-1.75.36,4.09,4.09,0,0,1-1-.14,2.77,2.77,0,0,1-.94-.43,2.55,2.55,0,0,1-.7-.79,2.41,2.41,0,0,1-.27-1.19,2.22,2.22,0,0,1,.49-1.53,3,3,0,0,1,1.33-.85,7.38,7.38,0,0,1,1.89-.36c.72-.06,1.46-.09,2.23-.09v-.27Zm-.36,1.22c-.5,0-1,0-1.53.07a6.48,6.48,0,0,0-1.39.25,2.57,2.57,0,0,0-1,.54,1.24,1.24,0,0,0-.4,1,1.35,1.35,0,0,0,.63,1.26,2.22,2.22,0,0,0,.63.27,3.51,3.51,0,0,0,.72.07,2.78,2.78,0,0,0,1.15-.22,2.48,2.48,0,0,0,1.37-1.51,3.15,3.15,0,0,0,.18-1.06v-.63h-.35Zm4.83-4.21,2,6.84h0l2.27-6.84h1.19l2.3,6.84h0l2-6.84h1.3l-2.66,8.42h-1.33l-2.25-6.82h0l-2.21,6.82h-1.33l-2.66-8.42h1.29Zm18.58,3a2.13,2.13,0,0,0-.58-1.64,2.35,2.35,0,0,0-1.67-.54,3.6,3.6,0,0,0-1.4.27,3.39,3.39,0,0,0-1.1.72l-.68-.81a3.87,3.87,0,0,1,1.37-.86,5.2,5.2,0,0,1,1.94-.34,4.09,4.09,0,0,1,1.28.2,2.9,2.9,0,0,1,1,.56,2.59,2.59,0,0,1,.7.95,3.29,3.29,0,0,1,.25,1.35v3.69c0,.32,0,.66,0,1a7.77,7.77,0,0,0,.11.88h-1.1a6.05,6.05,0,0,1-.09-.67c0-.24,0-.47,0-.7h0a3.59,3.59,0,0,1-1.31,1.22,3.87,3.87,0,0,1-1.75.36,4.09,4.09,0,0,1-1-.14,2.77,2.77,0,0,1-.94-.43,2.55,2.55,0,0,1-.7-.79,2.41,2.41,0,0,1-.27-1.19,2.22,2.22,0,0,1,.49-1.53,3,3,0,0,1,1.33-.85,7.38,7.38,0,0,1,1.89-.36c.72-.06,1.46-.09,2.23-.09v-.27Zm-.36,1.22c-.5,0-1,0-1.53.07a6.48,6.48,0,0,0-1.39.25,2.57,2.57,0,0,0-1,.54,1.24,1.24,0,0,0-.4,1,1.35,1.35,0,0,0,.63,1.26,2.22,2.22,0,0,0,.63.27,3.51,3.51,0,0,0,.72.07,2.78,2.78,0,0,0,1.15-.22,2.48,2.48,0,0,0,1.37-1.51,3.15,3.15,0,0,0,.18-1.06v-.63h-.35Zm4.67-2.36c0-.23,0-.52,0-.88s0-.68-.05-1h1.17c0,.23,0,.48,0,.76s0,.5,0,.68h0a2.88,2.88,0,0,1,1.08-1.19,2.93,2.93,0,0,1,1.62-.47,2.55,2.55,0,0,1,.41,0,3.06,3.06,0,0,1,.4.07l-.16,1.15a2.26,2.26,0,0,0-.36-.07,4.38,4.38,0,0,0-.5,0,2.53,2.53,0,0,0-.94.18,2,2,0,0,0-.79.58,2.9,2.9,0,0,0-.54,1,4.68,4.68,0,0,0-.2,1.44v4.32h-1.22V31.08Zm12.6,1.71a3,3,0,0,0-.77-2,2.55,2.55,0,0,0-2-.79,2.78,2.78,0,0,0-1.13.23,2.84,2.84,0,0,0-.92.61,3.08,3.08,0,0,0-.63.88,2.62,2.62,0,0,0-.27,1Zm1.24.4v.27a1.67,1.67,0,0,1,0,.31h-7a3.37,3.37,0,0,0,.25,1.19,3,3,0,0,0,.65,1,3.5,3.5,0,0,0,1,.67,3.32,3.32,0,0,0,2.85-.2,3.27,3.27,0,0,0,1.06-1l.92.72a4.37,4.37,0,0,1-3.61,1.78,4.81,4.81,0,0,1-1.75-.32,4.24,4.24,0,0,1-1.37-.94,4.34,4.34,0,0,1-1.24-3.16,4.83,4.83,0,0,1,.32-1.76,4.32,4.32,0,0,1,.9-1.4,4.1,4.1,0,0,1,1.35-.92,4.06,4.06,0,0,1,1.67-.34,4.2,4.2,0,0,1,1.75.34,3.63,3.63,0,0,1,2,2.21,4.75,4.75,0,0,1,.27,1.62Z"/></svg>