<svg width="41" height="41" xmlns="http://www.w3.org/2000/svg" xmlns:xlink="http://www.w3.org/1999/xlink" xml:space="preserve" overflow="hidden"><g transform="translate(-55 -182)"><path d="M64.8229 187.979 86.1771 187.979 86.1771 217.021 64.8229 217.021 64.8229 187.979ZM62.2604 219.583 88.7396 219.583 88.7396 185.417 62.2604 185.417 62.2604 219.583Z" fill="#C42828"/><path d="M67.8125 190.542 71.2292 190.542 71.2292 193.958 67.8125 193.958Z" fill="#C42828"/><path d="M74.6458 191.396 83.1875 191.396 83.1875 193.104 74.6458 193.104Z" fill="#C42828"/><path d="M67.8125 197.375 71.2292 197.375 71.2292 200.792 67.8125 200.792Z" fill="#C42828"/><path d="M74.6458 198.229 83.1875 198.229 83.1875 199.938 74.6458 199.938Z" fill="#C42828"/><path d="M67.8125 204.208 71.2292 204.208 71.2292 207.625 67.8125 207.625Z" fill="#C42828"/><path d="M74.6458 205.062 83.1875 205.062 83.1875 206.771 74.6458 206.771Z" fill="#C42828"/><path d="M67.8125 211.042 71.2292 211.042 71.2292 214.458 67.8125 214.458Z" fill="#C42828"/><path d="M74.6458 211.896 83.1875 211.896 83.1875 213.604 74.6458 213.604Z" fill="#C42828"/></g></svg>