<svg width="18" height="17" xmlns="http://www.w3.org/2000/svg" xmlns:xlink="http://www.w3.org/1999/xlink" xml:space="preserve" overflow="hidden"><defs><clipPath id="clip0"><rect x="549" y="332" width="18" height="17"/></clipPath></defs><g clip-path="url(#clip0)" transform="translate(-549 -332)"><path d="M9.20833 2.92188 8.5 1.85938 7.79167 2.92188 8.5 3.98438Z" fill="#FFFFFF" transform="matrix(1.05882 0 0 1 549 332)"/><path d="M8.5 4.51562 5.98542 8.73021 3.01042 7.34896 4.07292 11.9531 4.07292 13.0156 12.9271 13.0156 12.9271 11.9531 13.9896 7.34896 11.0146 8.73021Z" fill="#FFFFFF" transform="matrix(1.05882 0 0 1 549 332)"/><path d="M4.07292 13.724 12.9271 13.724 12.9271 15.1406 4.07292 15.1406Z" fill="#FFFFFF" transform="matrix(1.05882 0 0 1 549 332)"/><path d="M1.11563 5.45417 1.36354 6.69375 2.60312 6.94167 2.35521 5.70208Z" fill="#FFFFFF" transform="matrix(1.05882 0 0 1 549 332)"/><path d="M14.6448 5.70208 14.3969 6.94167 15.6365 6.69375 15.8844 5.45417Z" fill="#FFFFFF" transform="matrix(1.05882 0 0 1 549 332)"/></g></svg>