<svg width="168" height="168" xmlns="http://www.w3.org/2000/svg" xmlns:xlink="http://www.w3.org/1999/xlink" xml:space="preserve" overflow="hidden"><defs><clipPath id="clip0"><rect x="266" y="901" width="168" height="168"/></clipPath></defs><g clip-path="url(#clip0)" transform="translate(-266 -901)"><path d="M266 985C266 938.608 303.608 901 350 901 396.392 901 434 938.608 434 985 434 1031.39 396.392 1069 350 1069 303.608 1069 266 1031.39 266 985Z" fill="#FFFFFF" fill-rule="evenodd"/><g><g><g><path d="M373.103 986.078C369.785 989.491 366.657 991.671 359.832 992.429 361.633 990.628 363.719 988.827 365.52 986.647 366.278 985.794 367.7 983.898 367.7 983.803 369.311 981.149 370.259 978.116 370.259 974.798L370.259 962.475 376.895 962.475 376.895 976.883C376.99 977.073 377.179 981.812 373.103 986.078ZM325.992 986.078C321.821 981.812 322.01 977.073 322.01 976.883L322.01 962.38 328.646 962.38 328.646 974.703C328.646 978.021 329.594 981.054 331.205 983.708 331.205 983.803 332.627 985.794 333.385 986.552 335.281 988.732 337.272 990.533 339.073 992.334 332.437 991.576 329.214 989.396 325.992 986.078ZM382.677 976.599 382.677 956.693 370.354 956.693 370.354 950.057 349.5 950.057 328.646 950.057 328.646 956.693 316.323 956.693 316.323 976.504C316.323 977.452 316.323 983.993 321.726 989.775 326.939 995.273 333.291 998.117 344.381 998.306 345.234 999.728 345.708 1001.34 345.708 1003.05L345.708 1015.37 340.969 1015.37C338.883 1015.37 337.177 1017.07 337.177 1019.16L332.437 1019.16C330.352 1019.16 328.646 1020.87 328.646 1022.95L328.646 1024.85 370.354 1024.85 370.354 1022.95C370.354 1020.87 368.648 1019.16 366.562 1019.16L361.823 1019.16C361.823 1017.07 360.117 1015.37 358.031 1015.37L353.292 1015.37 353.292 1003.14C353.292 1001.43 353.766 999.823 354.619 998.401 365.709 998.211 372.06 995.273 377.274 989.87 382.677 984.182 382.677 977.547 382.677 976.599Z" fill="#45A49E"/></g></g></g></g></svg>