<svg width="19" height="19" xmlns="http://www.w3.org/2000/svg" xmlns:xlink="http://www.w3.org/1999/xlink" xml:space="preserve" overflow="hidden"><g transform="translate(-931 -159)"><path d="M945.428 168.203C944.735 168.916 944.082 169.371 942.657 169.529 943.033 169.153 943.469 168.777 943.845 168.322 944.003 168.144 944.3 167.748 944.3 167.728 944.636 167.174 944.834 166.541 944.834 165.848L944.834 163.275 946.22 163.275 946.22 166.283C946.24 166.323 946.279 167.312 945.428 168.203ZM935.592 168.203C934.721 167.312 934.76 166.323 934.76 166.283L934.76 163.255 936.146 163.255 936.146 165.828C936.146 166.521 936.344 167.154 936.68 167.708 936.68 167.728 936.977 168.144 937.135 168.302 937.531 168.757 937.947 169.133 938.323 169.509 936.938 169.351 936.265 168.896 935.592 168.203ZM947.427 166.224 947.427 162.068 944.854 162.068 944.854 160.682 940.5 160.682 936.146 160.682 936.146 162.068 933.573 162.068 933.573 166.204C933.573 166.402 933.573 167.768 934.701 168.975 935.79 170.123 937.116 170.717 939.431 170.756 939.609 171.053 939.708 171.39 939.708 171.746L939.708 174.319 938.719 174.319C938.283 174.319 937.927 174.675 937.927 175.11L936.938 175.11C936.502 175.11 936.146 175.467 936.146 175.902L936.146 176.298 944.854 176.298 944.854 175.902C944.854 175.467 944.498 175.11 944.062 175.11L943.073 175.11C943.073 174.675 942.717 174.319 942.281 174.319L941.292 174.319 941.292 171.766C941.292 171.409 941.391 171.073 941.569 170.776 943.884 170.736 945.21 170.123 946.299 168.995 947.427 167.807 947.427 166.422 947.427 166.224Z" fill="#393939"/></g></svg>