<svg width="19" height="19" xmlns="http://www.w3.org/2000/svg" xmlns:xlink="http://www.w3.org/1999/xlink" xml:space="preserve" overflow="hidden"><g transform="translate(-931 -184)"><path d="M933.771 189.938 939.906 189.938 939.906 194.094 933.771 194.094Z" fill="#393939"/><path d="M941.094 189.938 947.229 189.938 947.229 194.094 941.094 194.094Z" fill="#393939"/><path d="M933.771 195.281 939.906 195.281 939.906 201.417 933.771 201.417Z" fill="#393939"/><path d="M941.094 195.281 947.229 195.281 947.229 201.417 941.094 201.417Z" fill="#393939"/><path d="M944.458 187.939 942.281 187.939 943.469 186.751 942.638 185.9 941.094 187.444 941.094 185.761 939.906 185.761 939.906 187.444 938.362 185.9 937.531 186.751 938.719 187.939 936.542 187.939 936.542 189.126 944.458 189.126Z" fill="#393939"/></g></svg>