<svg width="19" height="19" xmlns="http://www.w3.org/2000/svg" xmlns:xlink="http://www.w3.org/1999/xlink" xml:space="preserve" overflow="hidden"><g transform="translate(-931 -105)"><path d="M933.771 107.771 936.542 107.771 936.542 110.542 933.771 110.542Z" fill="#393939"/><path d="M942.526 118.362C942.389 118.228 942.169 118.232 942.036 118.369 941.906 118.504 941.906 118.717 942.036 118.852L942.434 119.25 940.5 119.25 940.5 108.76 937.333 108.76 937.333 109.552 939.708 109.552 939.708 120.042 942.436 120.042 942.036 120.44C941.903 120.577 941.906 120.796 942.044 120.93 942.178 121.06 942.392 121.06 942.526 120.93L943.565 119.891C943.7 119.755 943.7 119.536 943.565 119.401Z" fill="#393939"/><path d="M947.229 119.646C947.229 120.52 946.52 121.229 945.646 121.229 944.771 121.229 944.062 120.52 944.062 119.646 944.062 118.771 944.771 118.062 945.646 118.062 946.52 118.062 947.229 118.771 947.229 119.646Z" fill="#393939"/></g></svg>