<svg width="168" height="168" xmlns="http://www.w3.org/2000/svg" xmlns:xlink="http://www.w3.org/1999/xlink" xml:space="preserve" overflow="hidden"><defs><clipPath id="clip0"><rect x="152" y="2118" width="168" height="168"/></clipPath><clipPath id="clip1"><rect x="170" y="2136" width="133" height="132"/></clipPath><clipPath id="clip2"><rect x="170" y="2136" width="133" height="132"/></clipPath><clipPath id="clip3"><rect x="170" y="2136" width="133" height="132"/></clipPath></defs><g clip-path="url(#clip0)" transform="translate(-152 -2118)"><path d="M152 2202C152 2155.61 189.608 2118 236 2118 282.392 2118 320 2155.61 320 2202 320 2248.39 282.392 2286 236 2286 189.608 2286 152 2248.39 152 2202Z" fill="#FFFFFF" fill-rule="evenodd"/><g clip-path="url(#clip1)"><g clip-path="url(#clip2)"><g clip-path="url(#clip3)"><path d="M19.1042 19.1042 38.2083 19.1042 38.2083 38.2083 19.1042 38.2083Z" fill="#69809F" transform="matrix(1 0 0 1 171 2136)"/><path d="M79.4692 92.1257C78.5219 91.207 77.0093 91.23 76.0905 92.1773 75.1915 93.1041 75.1915 94.5776 76.0905 95.5044L78.8361 98.25 65.5 98.25 65.5 25.9271 43.6667 25.9271 43.6667 31.3854 60.0417 31.3854 60.0417 103.708 78.8456 103.708 76.0905 106.452C75.1717 107.4 75.1948 108.912 76.1421 109.831 77.0689 110.73 78.5424 110.73 79.4692 109.831L86.6333 102.668C87.5662 101.735 87.5662 100.222 86.6333 99.2884Z" fill="#69809F" transform="matrix(1 0 0 1 171 2136)"/><path d="M111.896 100.979C111.896 107.008 107.008 111.896 100.979 111.896 94.95 111.896 90.0625 107.008 90.0625 100.979 90.0625 94.95 94.95 90.0625 100.979 90.0625 107.008 90.0625 111.896 94.95 111.896 100.979Z" fill="#69809F" transform="matrix(1 0 0 1 171 2136)"/></g></g></g></g></svg>