<svg width="41" height="42" xmlns="http://www.w3.org/2000/svg" xmlns:xlink="http://www.w3.org/1999/xlink" xml:space="preserve" overflow="hidden"><g transform="translate(-225 -216)"><path d="M23.9167 21.5677C23.9167 22.5073 23.1479 23.276 22.2083 23.276L20.5 23.276C19.5604 23.276 18.7917 22.5073 18.7917 21.5677L18.7917 20.7135 4.27083 20.7135 4.27083 32.6719C4.27083 33.6115 5.03958 34.3802 5.97917 34.3802L36.7292 34.3802C37.6688 34.3802 38.4375 33.6115 38.4375 32.6719L38.4375 20.7135 23.9167 20.7135 23.9167 21.5677Z" fill="#C42828" transform="matrix(1 0 0 1.02439 225 216)"/><path d="M36.7292 10.4635 28.1875 10.4635 28.1875 7.6875C28.1875 6.02188 26.8635 4.69792 25.1979 4.69792L17.5104 4.69792C15.8448 4.69792 14.5208 6.02188 14.5208 7.6875L14.5208 10.4635 5.97917 10.4635C5.03958 10.4635 4.27083 11.2323 4.27083 12.1719L4.27083 19.0052 18.7917 19.0052 18.7917 18.151 23.9167 18.151 23.9167 19.0052 38.4375 19.0052 38.4375 12.1719C38.4375 11.2323 37.6688 10.4635 36.7292 10.4635M17.0833 10.4635 17.0833 7.6875C17.0833 7.43125 17.2542 7.26042 17.5104 7.26042L25.1979 7.26042C25.4542 7.26042 25.625 7.43125 25.625 7.6875L25.625 10.4635 17.0833 10.4635Z" fill="#C42828" transform="matrix(1 0 0 1.02439 225 216)"/></g></svg>