<svg width="19" height="19" xmlns="http://www.w3.org/2000/svg" xmlns:xlink="http://www.w3.org/1999/xlink" xml:space="preserve" overflow="hidden"><g transform="translate(-160 -344)"><path d="M162.771 349.938 168.906 349.938 168.906 354.094 162.771 354.094Z" fill="#393939"/><path d="M170.094 349.938 176.229 349.938 176.229 354.094 170.094 354.094Z" fill="#393939"/><path d="M162.771 355.281 168.906 355.281 168.906 361.417 162.771 361.417Z" fill="#393939"/><path d="M170.094 355.281 176.229 355.281 176.229 361.417 170.094 361.417Z" fill="#393939"/><path d="M173.458 347.939 171.281 347.939 172.469 346.751 171.637 345.9 170.094 347.444 170.094 345.761 168.906 345.761 168.906 347.444 167.363 345.9 166.531 346.751 167.719 347.939 165.542 347.939 165.542 349.126 173.458 349.126Z" fill="#393939"/></g></svg>