<svg width="130" height="78" xmlns="http://www.w3.org/2000/svg" xmlns:xlink="http://www.w3.org/1999/xlink" xml:space="preserve" overflow="hidden"><defs><clipPath id="clip0"><rect x="3954" y="1177" width="130" height="78"/></clipPath></defs><g clip-path="url(#clip0)" transform="translate(-3954 -1177)"><path d="M3954 1189C3954 1182.92 3958.93 1178 3965 1178L4073 1178C4079.08 1178 4084 1182.92 4084 1189L4084 1233C4084 1239.08 4079.08 1244 4073 1244L3965 1244C3958.93 1244 3954 1239.08 3954 1233Z" fill="#3C3C3C" fill-rule="evenodd"/><text fill="#FFFFFF" font-family="Calibri,Calibri_MSFontService,sans-serif" font-weight="400" font-size="37" transform="matrix(1 0 0 1 4001.82 1223)">Run</text><g><g><g><path d="M7.84059 4.46873 31.1592 19.4999 7.84059 34.5311Z" fill="#45A49E" transform="matrix(1 -1.22465e-16 -1.22465e-16 -1 3961 1229)"/></g></g></g></g></svg>