<svg width="19" height="19" xmlns="http://www.w3.org/2000/svg" xmlns:xlink="http://www.w3.org/1999/xlink" xml:space="preserve" overflow="hidden"><g transform="translate(-109 -470)"><path d="M14.626 0.395833 14.626 0.395833C14.7646 0.910417 15.1406 1.34583 15.6354 1.58333L15.6354 1.58333C15.1406 1.82083 14.7844 2.25625 14.626 2.77083L14.626 2.77083C14.4875 2.25625 14.1115 1.82083 13.6167 1.58333L13.6167 1.58333C14.1115 1.34583 14.4875 0.910417 14.626 0.395833Z" fill="#3C3C3C" transform="matrix(-1 0 0 1 128 470)"/><path d="M1.95938 4.75 1.95938 4.75C2.09792 5.26458 2.47396 5.7 2.96875 5.9375L2.96875 5.9375C2.47396 6.175 2.11771 6.61042 1.95938 7.125L1.95938 7.125C1.82083 6.61042 1.44479 6.175 0.95 5.9375L0.95 5.9375C1.44479 5.7 1.82083 5.26458 1.95938 4.75Z" fill="#3C3C3C" transform="matrix(-1 0 0 1 128 470)"/><path d="M3.91875 0.791667 3.91875 0.791667C4.0375 1.22708 4.35417 1.58333 4.75 1.78125L4.75 1.78125C4.33437 1.97917 4.0375 2.33542 3.91875 2.77083L3.91875 2.77083C3.8 2.33542 3.48333 1.97917 3.0875 1.78125L3.0875 1.78125C3.48333 1.58333 3.8 1.22708 3.91875 0.791667Z" fill="#3C3C3C" transform="matrix(-1 0 0 1 128 470)"/><path d="M16.9813 3.95833 16.9813 3.95833C17.1 4.39375 17.4167 4.75 17.8125 4.94792L17.8125 4.94792C17.3969 5.14583 17.1 5.50208 16.9813 5.9375L16.9813 5.9375C16.8625 5.50208 16.5458 5.14583 16.15 4.94792L16.15 4.94792C16.5458 4.75 16.8625 4.39375 16.9813 3.95833Z" fill="#3C3C3C" transform="matrix(-1 0 0 1 128 470)"/><path d="M9.5 7.81771C9.34167 7.81771 9.20312 7.67917 9.20312 7.52083L9.20312 5.54167C9.20312 5.38333 9.34167 5.24479 9.5 5.24479 9.65833 5.24479 9.79688 5.38333 9.79688 5.54167L9.79688 7.52083C9.79688 7.67917 9.65833 7.81771 9.5 7.81771Z" fill="#3C3C3C" transform="matrix(-1 0 0 1 128 470)"/><path d="M9.5 4.65104C9.34167 4.65104 9.20312 4.5125 9.20312 4.35417L9.20312 2.77083C9.20312 2.6125 9.34167 2.47396 9.5 2.47396 9.65833 2.47396 9.79688 2.6125 9.79688 2.77083L9.79688 4.35417C9.79688 4.5125 9.65833 4.65104 9.5 4.65104Z" fill="#3C3C3C" transform="matrix(-1 0 0 1 128 470)"/><path d="M9.5 1.88021C9.34167 1.88021 9.20312 1.74167 9.20312 1.58333L9.20312 0.791667C9.20312 0.633333 9.34167 0.494792 9.5 0.494792 9.65833 0.494792 9.79688 0.633333 9.79688 0.791667L9.79688 1.58333C9.79688 1.74167 9.65833 1.88021 9.5 1.88021Z" fill="#3C3C3C" transform="matrix(-1 0 0 1 128 470)"/><path d="M11.6771 6.43229C11.6573 6.43229 11.6375 6.43229 11.6177 6.43229 11.4594 6.39271 11.3604 6.23438 11.4 6.07604L11.7365 4.53229C11.776 4.37396 11.9344 4.275 12.0927 4.31458 12.251 4.35417 12.35 4.5125 12.3104 4.67083L11.974 6.21458C11.9344 6.33333 11.8156 6.43229 11.6771 6.43229Z" fill="#3C3C3C" transform="matrix(-1 0 0 1 128 470)"/><path d="M12.2708 3.72083C12.251 3.72083 12.2312 3.72083 12.2115 3.72083 12.0531 3.68125 11.9542 3.52292 11.9937 3.36458L11.9937 3.36458 12.251 2.19688C12.2906 2.03854 12.4292 1.93958 12.6073 1.95938 12.7656 1.99896 12.8646 2.1375 12.8448 2.31562 12.8448 2.31562 12.8448 2.31562 12.8448 2.33542L12.5875 3.50313C12.5281 3.62188 12.4094 3.72083 12.2708 3.72083Z" fill="#3C3C3C" transform="matrix(-1 0 0 1 128 470)"/><path d="M13.6562 6.03646C13.4979 6.03646 13.3594 5.89792 13.3594 5.73958 13.3594 5.68021 13.3792 5.62083 13.4188 5.56146L14.7646 3.60208C14.8635 3.46354 15.0417 3.44375 15.1802 3.54271 15.299 3.64167 15.3385 3.8 15.2594 3.93854L13.9135 5.89792C13.8542 5.99687 13.7552 6.03646 13.6562 6.03646Z" fill="#3C3C3C" transform="matrix(-1 0 0 1 128 470)"/><path d="M7.32292 6.43229C7.18437 6.43229 7.06563 6.33333 7.02604 6.19479L6.61042 4.25521C6.57083 4.09688 6.68958 3.93854 6.84792 3.89896 7.00625 3.85938 7.16458 3.95833 7.18437 4.11667L7.6 6.05625C7.63958 6.21458 7.54063 6.37292 7.38229 6.4125 7.3625 6.43229 7.34271 6.43229 7.32292 6.43229Z" fill="#3C3C3C" transform="matrix(-1 0 0 1 128 470)"/><path d="M6.65 3.34479C6.51146 3.34479 6.39271 3.24583 6.35313 3.10729L6.19479 2.33542C6.15521 2.17708 6.25417 2.01875 6.4125 1.97917 6.57083 1.93958 6.72917 2.03854 6.76875 2.19688 6.76875 2.19688 6.76875 2.19688 6.76875 2.21667L6.92708 2.98854C6.96667 3.14687 6.86771 3.30521 6.70938 3.34479L6.70938 3.34479C6.68958 3.34479 6.66979 3.34479 6.65 3.34479L6.65 3.34479Z" fill="#3C3C3C" transform="matrix(-1 0 0 1 128 470)"/><path d="M5.34375 6.03646C5.24479 6.03646 5.14583 5.99687 5.10625 5.91771L3.76042 3.95833C3.68125 3.81979 3.72083 3.64167 3.85938 3.54271 3.99792 3.46354 4.15625 3.48333 4.25521 3.62188L5.60104 5.58125C5.7 5.71979 5.66042 5.89792 5.52187 5.99687 5.4625 6.01667 5.40312 6.03646 5.34375 6.03646Z" fill="#3C3C3C" transform="matrix(-1 0 0 1 128 470)"/><path d="M18.1688 16.2094 17.575 9.79688C17.5552 9.59896 17.3771 9.44063 17.1792 9.44063 17.1 9.44063 16.9813 9.44063 16.8823 9.44063L16.7833 8.29271 16.4271 8.27292C16.1302 8.25313 15.8333 8.27292 15.5562 8.29271L15.4573 7.22396 15.1604 7.16458C13.0823 6.90729 11.0042 7.6 9.5 9.06458 7.99583 7.6 5.91771 6.90729 3.83958 7.16458L3.54271 7.22396 3.44375 8.29271C3.14687 8.27292 2.86979 8.25313 2.57292 8.27292L2.23646 8.29271 2.1375 9.44063C2.01875 9.44063 1.91979 9.44063 1.84063 9.44063 1.64271 9.44063 1.46458 9.59896 1.44479 9.79688L0.851042 16.2094C0.811458 16.4271 0.969792 16.625 1.1875 16.6448 1.20729 16.6448 1.22708 16.6448 1.24688 16.6448 2.45417 16.6052 5.83854 16.6844 8.58958 18.4854 8.72812 18.5646 8.86667 18.624 9.025 18.624L10.0146 18.624C10.1729 18.624 10.3115 18.5844 10.4302 18.5052 13.3198 16.7042 16.6052 16.625 17.7729 16.6646 17.9906 16.6646 18.1688 16.5063 18.1885 16.2885 18.1688 16.2292 18.1688 16.2292 18.1688 16.2094ZM9.89583 9.77708C11.1625 8.47083 12.924 7.79792 14.725 7.89688L15.2594 14.0323C14.3292 14.2104 11.9146 14.8042 9.89583 16.5458L9.89583 9.77708ZM4.275 7.91667C6.07604 7.81771 7.8375 8.49063 9.10417 9.79688L9.10417 16.5656C7.08542 14.824 4.67083 14.2302 3.74062 14.0521L4.275 7.91667ZM2.375 15.2396 2.96875 9.04479C3.0875 9.04479 3.22604 9.06458 3.38438 9.06458L2.88958 14.725 3.26562 14.7646C3.30521 14.7646 6.65 15.2 8.98542 17.5156L8.98542 17.5156C6.39271 15.5365 3.50313 15.2792 2.375 15.2396ZM10.0146 17.5552 10.0146 17.5552C12.3896 15.2198 15.7146 14.7646 15.7344 14.7646L16.1104 14.725 15.6156 9.06458C15.774 9.04479 15.9125 9.04479 16.0312 9.04479L16.625 15.2396C15.4969 15.2792 12.6073 15.5562 10.0146 17.5552Z" fill="#3C3C3C" transform="matrix(-1 0 0 1 128 470)"/></g></svg>